{
	"asset":{
		"generator":"Khronos glTF Blender I/O v3.5.30",
		"version":"2.0"
	},
	"scene":0,
	"scenes":[
		{
			"name":"Scene",
			"nodes":[
				3
			]
		}
	],
	"nodes":[
		{
			"mesh":0,
			"name":"mug",
			"rotation":[
				1,
				0,
				0,
				0
			]
		},
		{
			"mesh":1,
			"name":"surface",
			"rotation":[
				1,
				0,
				0,
				0
			]
		},
		{
			"children":[
				0,
				1
			],
			"name":"mugy_model"
		},
		{
			"children":[
				2
			],
			"name":"mugy",
			"rotation":[
				-0.70710688829422,
				0,
				0,
				0.7071066498756409
			]
		}
	],
	"materials":[
		{
			"doubleSided":true,
			"name":"cup",
			"pbrMetallicRoughness":{
				"baseColorFactor":[
					0.800000011920929,
					0.800000011920929,
					0.800000011920929,
					1
				],
				"metallicFactor":0,
				"roughnessFactor":0.5
			}
		},
		{
			"doubleSided":true,
			"name":"logo",
			"pbrMetallicRoughness":{
				"baseColorTexture":{
					"index":0
				},
				"metallicFactor":0,
				"roughnessFactor":0.5
			}
		}
	],
	"meshes":[
		{
			"name":"mug_obj",
			"primitives":[
				{
					"attributes":{
						"POSITION":0,
						"TEXCOORD_0":1,
						"NORMAL":2
					},
					"indices":3,
					"material":0
				}
			]
		},
		{
			"name":"sur_obj",
			"primitives":[
				{
					"attributes":{
						"POSITION":4,
						"TEXCOORD_0":5,
						"NORMAL":6
					},
					"indices":7,
					"material":1
				}
			]
		}
	],
	"textures":[
		{
			"sampler":0,
			"source":0
		}
	],
	"images":[
		{
			"mimeType":"image/png",
			"name":"324.png",
			"uri":"324_png.png"
		}
	],
	"accessors":[
		{
			"bufferView":0,
			"componentType":5126,
			"count":3404,
			"max":[
				15.046900749206543,
				7.7090959548950195,
				7.896360397338867
			],
			"min":[
				-7.694331169128418,
				-7.709103584289551,
				-10.23184585571289
			],
			"type":"VEC3"
		},
		{
			"bufferView":1,
			"componentType":5126,
			"count":3404,
			"type":"VEC2"
		},
		{
			"bufferView":2,
			"componentType":5126,
			"count":3404,
			"type":"VEC3"
		},
		{
			"bufferView":3,
			"componentType":5123,
			"count":18096,
			"type":"SCALAR"
		},
		{
			"bufferView":4,
			"componentType":5126,
			"count":2646,
			"max":[
				6.251778602600098,
				7.7090959548950195,
				6.698390483856201
			],
			"min":[
				-7.694331169128418,
				-7.709103584289551,
				-8.938173294067383
			],
			"type":"VEC3"
		},
		{
			"bufferView":5,
			"componentType":5126,
			"count":2646,
			"type":"VEC2"
		},
		{
			"bufferView":6,
			"componentType":5126,
			"count":2646,
			"type":"VEC3"
		},
		{
			"bufferView":7,
			"componentType":5123,
			"count":14976,
			"type":"SCALAR"
		}
	],
	"bufferViews":[
		{
			"buffer":0,
			"byteLength":40848,
			"byteOffset":0,
			"target":34962
		},
		{
			"buffer":0,
			"byteLength":27232,
			"byteOffset":40848,
			"target":34962
		},
		{
			"buffer":0,
			"byteLength":40848,
			"byteOffset":68080,
			"target":34962
		},
		{
			"buffer":0,
			"byteLength":36192,
			"byteOffset":108928,
			"target":34963
		},
		{
			"buffer":0,
			"byteLength":31752,
			"byteOffset":145120,
			"target":34962
		},
		{
			"buffer":0,
			"byteLength":21168,
			"byteOffset":176872,
			"target":34962
		},
		{
			"buffer":0,
			"byteLength":31752,
			"byteOffset":198040,
			"target":34962
		},
		{
			"buffer":0,
			"byteLength":29952,
			"byteOffset":229792,
			"target":34963
		}
	],
	"samplers":[
		{
			"magFilter":9729,
			"minFilter":9987,
			"wrapS":33071,
			"wrapT":33071
		}
	],
	"buffers":[
		{
			"byteLength":259744,
			"uri":"mugy.bin"
		}
	]
}
